<svg xmlns="http://www.w3.org/2000/svg" width="965.7" height="290" x="482.85" y="301" viewBox="0 0 333 100"><g pointer-events="all"><g stroke="null"><path d="M129-.03h204.178v100.113H129V-.03z" data-height="176.769" data-width="176.769" data-y="0" data-x="-.013" data-type="rect" fill="#7f47aa"/><path d="M17.093 50.565q0-2.649.882-5.277.881-2.629 2.566-4.699 1.685-2.069 4.154-3.373 2.468-1.304 5.603-1.304 3.724 0 6.368 1.78 2.645 1.78 3.9 4.637l-2.157 1.407q-.666-1.45-1.626-2.443-.96-.993-2.057-1.614-1.097-.621-2.272-.89-1.176-.269-2.312-.269-2.508 0-4.429 1.077-1.92 1.076-3.232 2.814-1.312 1.738-1.98 3.912-.665 2.173-.665 4.407 0 2.443.803 4.678t2.195 3.952q1.391 1.719 3.291 2.732 1.9 1.015 4.134 1.015 1.176 0 2.41-.31 1.235-.311 2.39-.994 1.156-.683 2.135-1.697.98-1.014 1.647-2.463l2.272 1.242q-.666 1.655-1.88 2.918-1.215 1.263-2.705 2.132-1.488.869-3.153 1.324-1.666.455-3.272.455-2.861 0-5.251-1.324-2.39-1.325-4.115-3.456-1.724-2.132-2.684-4.843-.96-2.711-.96-5.526h0zM48.558 62.9h15.95v2.566H45.816V36.078h18.338v2.566H48.56v10.597h13.597v2.441H48.56V62.9h0zm39.93 2.566H69.679V36.078h2.743V62.9h16.066v2.566h0zm22.844 0H92.524V36.078h2.742V62.9h16.066v2.566h0z" fill="#7f47aa" font-family="Raleway" letter-spacing="0" font-size="100" text-anchor="end"/><path d="M177.724 27.43l-1.586 9.333h-13.934l-5.607 33.745h-10.252l5.608-33.745h-13.991l1.586-9.333h38.176zm4.645 0h16.425q6.458 0 9.176 2.992 2.04 2.273 2.04 5.743 0 1.196-.227 2.512l-.793 4.667q-.68 3.89-2.35 6.283-1.671 2.393-3.71 3.41l5.154 17.471h-11.442l-4.758-16.095h-3.512l-2.322 16.095h-10.874l7.194-43.078h-.001 0zm12.857 9.333h-4.248l-1.473 10.41h3.965q3.003 0 4.305-1.525 1.303-1.526 1.303-4.039 0-4.846-3.852-4.846zm48.033 33.745h-10.763l.34-9.394h-9.46l-2.774 9.394h-10.819L224.34 27.43h18.692l.226 43.078h0zM233.742 37.9h-3.568L225.7 53.098h7.42l.622-15.198h0zm22.09-10.47h15.86q7.42 0 10.592 3.949 2.322 2.992 2.322 7.478 0 1.615-.283 3.41l-2.21 13.343q-1.132 6.761-5.55 10.83-4.418 4.068-11.442 4.068H248.64l7.194-43.078h0zm12.292 9.333h-3.682l-4.021 24.411h5.38q2.662 0 4.164-1.525 1.5-1.526 2.067-4.996l1.642-9.813q.227-1.316.227-2.393 0-5.684-5.777-5.684h0zm48.428 24.411l-1.586 9.334h-28.434l7.193-43.078h28.434l-1.586 9.333h-18.238l-1.303 8.078h15.066l-1.585 9.333h-15.067l-1.132 7h18.238z" fill="#fff" font-family="Fugaz One" letter-spacing="0" font-size="100"/><path fill="#7f47aa" d="M122.75 7.497V92.27H6.427V7.497H122.75m6.595-8.074H-.166v100.918h129.51V-.576h0z"/></g></g></svg>